<svg xmlns="http://www.w3.org/2000/svg" width="994.648" height="197.484" viewBox="0 0 994.648 197.484">
  <g id="Group_1" data-name="Group 1" transform="translate(-18.474 -153.823)">
    <g id="MDI_motion-play" data-name="MDI / motion-play" transform="translate(293.994 157.323)">
      <path id="Path_motion-play" data-name="Path / motion-play" d="M192.484,97.242A95.033,95.033,0,0,0,97.242,2,98.809,98.809,0,0,0,65.05,7.333L71.711,25.81a68.124,68.124,0,0,1,25.525-5.047A76.479,76.479,0,1,1,20.763,97.239a69.718,69.718,0,0,1,5.047-25.9L7.333,65.05A98.809,98.809,0,0,0,2,97.242a95.242,95.242,0,0,0,190.484,0M35.042,20.763a14.43,14.43,0,1,1,0,28.86A14.641,14.641,0,0,1,20.755,35.049,14.783,14.783,0,0,1,35.042,20.763M154.38,97.242a56.947,56.947,0,1,0-16.68,40.466,56.947,56.947,0,0,0,16.68-40.466m-28.573,0L78.193,125.815V68.669" transform="translate(-2 -2)" fill="#d81f26" stroke="#d81f26" stroke-linecap="round" stroke-width="7"/>
    </g>
    <path id="vee" d="M71.764,0h31.463l67.521-183.828H138.755L87.849-32.7h-.707L36.412-183.828H4.065ZM263.369,3.535c40.124,0,70.173-24.039,76.183-54.441l.354-1.768H309.68l-.53,1.591c-5.3,15.731-21.741,27.4-45.073,27.4-32.7,0-53.558-22.095-54.265-59.921H342.2V-94.919c0-55.148-30.579-92.444-80.778-92.444S178.7-148.3,178.7-91.384v.177C178.7-33.407,210.519,3.535,263.369,3.535Zm-2.121-163.678c26.867,0,46.664,16.792,49.669,52.5H210.342C213.7-141.937,234.558-160.143,261.248-160.143ZM448.788,3.535c40.124,0,70.173-24.039,76.183-54.441l.354-1.768H495.1l-.53,1.591c-5.3,15.731-21.741,27.4-45.073,27.4-32.7,0-53.558-22.095-54.265-59.921H527.622V-94.919c0-55.148-30.579-92.444-80.778-92.444S364.121-148.3,364.121-91.384v.177C364.121-33.407,395.938,3.535,448.788,3.535Zm-2.121-163.678c26.867,0,46.664,16.792,49.669,52.5H395.761C399.119-141.937,419.977-160.143,446.667-160.143Z" transform="translate(484 345)" fill="#d81f26" stroke="#d81f26" stroke-linecap="round" stroke-width="3"/>
    <path id="m" d="M19.974,0H50.729V-115.246c0-25.63,17.676-44.9,42.068-44.9,22.8,0,37.649,14.671,37.649,36.942V0H161.2V-116.837c0-25.1,17.146-43.306,41.538-43.306,24.216,0,38.18,15.024,38.18,40.3V0h30.756V-126.912c0-36.589-23.509-60.451-59.921-60.451-25.807,0-47.371,13.257-57.623,35.352h-.707c-7.954-22.448-26.514-35.352-51.613-35.352-23.686,0-42.068,12.2-50.376,30.4h-.707v-26.867H19.974Z" transform="translate(0 345)" fill="#d81f26" stroke="#d81f26" stroke-linecap="round" stroke-width="3"/>
  </g>
</svg>
